<svg xmlns="http://www.w3.org/2000/svg" viewBox="0 0 512 512" width="100%" height="100%">
  <rect width="512" height="512" rx="128" fill="#4f46e5"/>
  <circle cx="256" cy="256" r="180" fill="none" stroke="#ffffff" stroke-width="20" stroke-opacity="0.15"/>
  <!-- Wallet Symbol -->
  <path d="M180 180h130c16.5 0 30 13.5 30 30v90c0 16.5-13.5 30-30 30H180c-16.5 0-30-13.5-30-30v-90c0-16.5 13.5-30 30-30z" fill="#ffffff" shadow="0 10px 20px rgba(0,0,0,0.3)"/>
  <path d="M310 230h40c8.3 0 15 6.7 15 15v20c0 8.3-6.7 15-15 15h-40v-50z" fill="#e0e7ff"/>
  <circle cx="335" cy="255" r="8" fill="#4f46e5"/>
  <!-- Sparkle AI Star -->
  <path d="M340 140l8 18 18 8-18 8-8 18-8-18-18-8 18-8z" fill="#facc15"/>
  <path d="M160 340l6 12 12 6-12 6-6 12-6-12-12-6 12-6z" fill="#38bdf8"/>
</svg>
